<svg width="1440" height="4288" viewBox="0 0 1440 4288" fill="none" xmlns="http://www.w3.org/2000/svg">
<rect x="29.9091" y="1476.55" width="5.63636" height="5.63636" rx="2" transform="rotate(180 29.9091 1476.55)" fill="#F9F047"/>
<rect x="29.9092" y="1448.36" width="5.63636" height="5.63636" rx="2" transform="rotate(180 29.9092 1448.36)" fill="#F9F047"/>
<rect x="29.9092" y="1462.45" width="5.63636" height="5.63636" rx="2" transform="rotate(180 29.9092 1462.45)" fill="#F9F047"/>
<rect x="29.9092" y="1434.27" width="5.63636" height="5.63636" rx="2" transform="rotate(180 29.9092 1434.27)" fill="#F9F047"/>
<rect x="29.9092" y="1420.18" width="5.63636" height="5.63636" rx="2" transform="rotate(180 29.9092 1420.18)" fill="#F9F047"/>
<rect width="5.63636" height="5.63636" rx="2" transform="matrix(-1 0 0 1 1.72729 1485)" fill="#F9F047"/>
<rect width="5.63636" height="5.63636" rx="2" transform="matrix(-1 0 0 1 1.72729 1513.18)" fill="#F9F047"/>
<rect width="5.63636" height="5.63636" rx="2" transform="matrix(-1 0 0 1 1.72729 1499.09)" fill="#F9F047"/>
<rect width="5.63636" height="5.63636" rx="2" transform="matrix(-1 0 0 1 1.72729 1527.27)" fill="#F9F047"/>
<rect width="5.63636" height="5.63636" rx="2" transform="matrix(-1 0 0 1 1.72729 1541.36)" fill="#F9F047"/>
<rect x="44" y="1476.55" width="5.63636" height="5.63636" rx="2" transform="rotate(180 44 1476.55)" fill="#F9F047"/>
<rect x="44" y="1448.36" width="5.63636" height="5.63636" rx="2" transform="rotate(180 44 1448.36)" fill="#F9F047"/>
<rect x="44" y="1462.45" width="5.63636" height="5.63636" rx="2" transform="rotate(180 44 1462.45)" fill="#F9F047"/>
<rect x="44" y="1434.27" width="5.63636" height="5.63636" rx="2" transform="rotate(180 44 1434.27)" fill="#F9F047"/>
<rect x="44" y="1420.18" width="5.63636" height="5.63636" rx="2" transform="rotate(180 44 1420.18)" fill="#F9F047"/>
<rect width="5.63636" height="5.63636" rx="2" transform="matrix(-1 0 0 1 15.8182 1414.55)" fill="#626D8C"/>
<rect width="5.63636" height="5.63636" rx="2" transform="matrix(-1 0 0 1 15.8181 1442.73)" fill="#626D8C"/>
<rect width="5.63636" height="5.63636" rx="2" transform="matrix(-1 0 0 1 15.8181 1428.64)" fill="#626D8C"/>
<rect width="5.63636" height="5.63636" rx="2" transform="matrix(-1 0 0 1 15.8181 1456.82)" fill="#626D8C"/>
<rect width="5.63636" height="5.63636" rx="2" transform="matrix(-1 0 0 1 15.8181 1470.91)" fill="#626D8C"/>
<rect x="29.9091" y="1547" width="5.63636" height="5.63636" rx="2" transform="rotate(180 29.9091 1547)" fill="#626D8C"/>
<rect x="29.9092" y="1518.82" width="5.63636" height="5.63636" rx="2" transform="rotate(180 29.9092 1518.82)" fill="#626D8C"/>
<rect x="29.9092" y="1532.91" width="5.63636" height="5.63636" rx="2" transform="rotate(180 29.9092 1532.91)" fill="#626D8C"/>
<rect x="29.9092" y="1504.73" width="5.63636" height="5.63636" rx="2" transform="rotate(180 29.9092 1504.73)" fill="#626D8C"/>
<rect x="29.9092" y="1490.64" width="5.63636" height="5.63636" rx="2" transform="rotate(180 29.9092 1490.64)" fill="#626D8C"/>
<rect width="5.63636" height="5.63636" rx="2" transform="matrix(-1 0 0 1 1.72729 1414.55)" fill="#626D8C"/>
<rect width="5.63636" height="5.63636" rx="2" transform="matrix(-1 0 0 1 1.72729 1442.73)" fill="#626D8C"/>
<rect width="5.63636" height="5.63636" rx="2" transform="matrix(-1 0 0 1 1.72729 1428.64)" fill="#626D8C"/>
<rect width="5.63636" height="5.63636" rx="2" transform="matrix(-1 0 0 1 1.72729 1456.82)" fill="#626D8C"/>
<rect width="5.63636" height="5.63636" rx="2" transform="matrix(-1 0 0 1 1.72729 1470.91)" fill="#626D8C"/>
<rect x="44" y="1547" width="5.63636" height="5.63636" rx="2" transform="rotate(180 44 1547)" fill="#626D8C"/>
<rect x="44" y="1518.82" width="5.63636" height="5.63636" rx="2" transform="rotate(180 44 1518.82)" fill="#626D8C"/>
<rect x="44" y="1532.91" width="5.63636" height="5.63636" rx="2" transform="rotate(180 44 1532.91)" fill="#626D8C"/>
<rect x="44" y="1504.73" width="5.63636" height="5.63636" rx="2" transform="rotate(180 44 1504.73)" fill="#626D8C"/>
<rect x="44" y="1490.64" width="5.63636" height="5.63636" rx="2" transform="rotate(180 44 1490.64)" fill="#626D8C"/>
<rect width="5.63636" height="5.63636" rx="2" transform="matrix(-1 0 0 1 15.8182 1485)" fill="#626D8C"/>
<rect width="5.63636" height="5.63636" rx="2" transform="matrix(-1 0 0 1 15.8181 1513.18)" fill="#626D8C"/>
<rect width="5.63636" height="5.63636" rx="2" transform="matrix(-1 0 0 1 15.8181 1499.09)" fill="#626D8C"/>
<rect width="5.63636" height="5.63636" rx="2" transform="matrix(-1 0 0 1 15.8181 1527.27)" fill="#626D8C"/>
<rect width="5.63636" height="5.63636" rx="2" transform="matrix(-1 0 0 1 15.8181 1541.36)" fill="#626D8C"/>
<rect x="38.3636" y="2814.45" width="5.63636" height="5.63636" rx="2" fill="#F9F047"/>
<rect x="38.3636" y="2842.64" width="5.63636" height="5.63636" rx="2" fill="#F9F047"/>
<rect x="38.3636" y="2828.55" width="5.63636" height="5.63636" rx="2" fill="#F9F047"/>
<rect x="38.3636" y="2856.73" width="5.63636" height="5.63636" rx="2" fill="#F9F047"/>
<rect x="38.3636" y="2870.82" width="5.63636" height="5.63636" rx="2" fill="#F9F047"/>
<rect width="5.63636" height="5.63636" rx="2" transform="matrix(1 0 0 -1 -3.90912 2806)" fill="#F9F047"/>
<rect width="5.63636" height="5.63636" rx="2" transform="matrix(1 0 0 -1 -3.90918 2777.82)" fill="#F9F047"/>
<rect width="5.63636" height="5.63636" rx="2" transform="matrix(1 0 0 -1 -3.90918 2791.91)" fill="#F9F047"/>
<rect width="5.63636" height="5.63636" rx="2" transform="matrix(1 0 0 -1 -3.90918 2763.73)" fill="#F9F047"/>
<rect width="5.63636" height="5.63636" rx="2" transform="matrix(1 0 0 -1 -3.90918 2749.64)" fill="#F9F047"/>
<rect x="24.2727" y="2814.45" width="5.63636" height="5.63636" rx="2" fill="#F9F047"/>
<rect x="24.2727" y="2842.64" width="5.63636" height="5.63636" rx="2" fill="#F9F047"/>
<rect x="24.2727" y="2828.55" width="5.63636" height="5.63636" rx="2" fill="#F9F047"/>
<rect x="24.2727" y="2856.73" width="5.63636" height="5.63636" rx="2" fill="#F9F047"/>
<rect x="24.2727" y="2870.82" width="5.63636" height="5.63636" rx="2" fill="#F9F047"/>
<rect x="10.1818" y="2744" width="5.63636" height="5.63636" rx="2" fill="#626D8C"/>
<rect x="10.1819" y="2772.18" width="5.63636" height="5.63636" rx="2" fill="#626D8C"/>
<rect x="10.1819" y="2758.09" width="5.63636" height="5.63636" rx="2" fill="#626D8C"/>
<rect x="10.1819" y="2786.27" width="5.63636" height="5.63636" rx="2" fill="#626D8C"/>
<rect x="10.1819" y="2800.36" width="5.63636" height="5.63636" rx="2" fill="#626D8C"/>
<rect x="38.3636" y="2744" width="5.63636" height="5.63636" rx="2" fill="#626D8C"/>
<rect x="38.3636" y="2772.18" width="5.63636" height="5.63636" rx="2" fill="#626D8C"/>
<rect x="38.3636" y="2758.09" width="5.63636" height="5.63636" rx="2" fill="#626D8C"/>
<rect x="38.3636" y="2786.27" width="5.63636" height="5.63636" rx="2" fill="#626D8C"/>
<rect x="38.3636" y="2800.36" width="5.63636" height="5.63636" rx="2" fill="#626D8C"/>
<rect width="5.63636" height="5.63636" rx="2" transform="matrix(1 0 0 -1 -3.90912 2876.45)" fill="#626D8C"/>
<rect width="5.63636" height="5.63636" rx="2" transform="matrix(1 0 0 -1 -3.90918 2848.27)" fill="#626D8C"/>
<rect width="5.63636" height="5.63636" rx="2" transform="matrix(1 0 0 -1 -3.90918 2862.36)" fill="#626D8C"/>
<rect width="5.63636" height="5.63636" rx="2" transform="matrix(1 0 0 -1 -3.90918 2834.18)" fill="#626D8C"/>
<rect width="5.63636" height="5.63636" rx="2" transform="matrix(1 0 0 -1 -3.90918 2820.09)" fill="#626D8C"/>
<rect x="24.2727" y="2744" width="5.63636" height="5.63636" rx="2" fill="#626D8C"/>
<rect x="24.2727" y="2772.18" width="5.63636" height="5.63636" rx="2" fill="#626D8C"/>
<rect x="24.2727" y="2758.09" width="5.63636" height="5.63636" rx="2" fill="#626D8C"/>
<rect x="24.2727" y="2786.27" width="5.63636" height="5.63636" rx="2" fill="#626D8C"/>
<rect x="24.2727" y="2800.36" width="5.63636" height="5.63636" rx="2" fill="#626D8C"/>
<rect x="10.1818" y="2814.45" width="5.63636" height="5.63636" rx="2" fill="#626D8C"/>
<rect x="10.1819" y="2842.64" width="5.63636" height="5.63636" rx="2" fill="#626D8C"/>
<rect x="10.1819" y="2828.55" width="5.63636" height="5.63636" rx="2" fill="#626D8C"/>
<rect x="10.1819" y="2856.73" width="5.63636" height="5.63636" rx="2" fill="#626D8C"/>
<rect x="10.1819" y="2870.82" width="5.63636" height="5.63636" rx="2" fill="#626D8C"/>
<rect width="5.63636" height="5.63636" rx="2" transform="matrix(-1 0 0 1 1401.64 2235.45)" fill="#F9F047"/>
<rect width="5.63636" height="5.63636" rx="2" transform="matrix(-1 0 0 1 1401.64 2263.64)" fill="#F9F047"/>
<rect width="5.63636" height="5.63636" rx="2" transform="matrix(-1 0 0 1 1401.64 2249.55)" fill="#F9F047"/>
<rect width="5.63636" height="5.63636" rx="2" transform="matrix(-1 0 0 1 1401.64 2277.73)" fill="#F9F047"/>
<rect width="5.63636" height="5.63636" rx="2" transform="matrix(-1 0 0 1 1401.64 2291.82)" fill="#F9F047"/>
<rect x="1443.91" y="2227" width="5.63636" height="5.63636" rx="2" transform="rotate(180 1443.91 2227)" fill="#F9F047"/>
<rect x="1443.91" y="2198.82" width="5.63636" height="5.63636" rx="2" transform="rotate(180 1443.91 2198.82)" fill="#F9F047"/>
<rect x="1443.91" y="2212.91" width="5.63636" height="5.63636" rx="2" transform="rotate(180 1443.91 2212.91)" fill="#F9F047"/>
<rect x="1443.91" y="2184.73" width="5.63636" height="5.63636" rx="2" transform="rotate(180 1443.91 2184.73)" fill="#F9F047"/>
<rect x="1443.91" y="2170.64" width="5.63636" height="5.63636" rx="2" transform="rotate(180 1443.91 2170.64)" fill="#F9F047"/>
<rect width="5.63636" height="5.63636" rx="2" transform="matrix(-1 0 0 1 1415.73 2235.45)" fill="#F9F047"/>
<rect width="5.63636" height="5.63636" rx="2" transform="matrix(-1 0 0 1 1415.73 2263.64)" fill="#F9F047"/>
<rect width="5.63636" height="5.63636" rx="2" transform="matrix(-1 0 0 1 1415.73 2249.55)" fill="#F9F047"/>
<rect width="5.63636" height="5.63636" rx="2" transform="matrix(-1 0 0 1 1415.73 2277.73)" fill="#F9F047"/>
<rect width="5.63636" height="5.63636" rx="2" transform="matrix(-1 0 0 1 1415.73 2291.82)" fill="#F9F047"/>
<rect width="5.63636" height="5.63636" rx="2" transform="matrix(-1 0 0 1 1429.82 2165)" fill="#626D8C"/>
<rect width="5.63636" height="5.63636" rx="2" transform="matrix(-1 0 0 1 1429.82 2193.18)" fill="#626D8C"/>
<rect width="5.63636" height="5.63636" rx="2" transform="matrix(-1 0 0 1 1429.82 2179.09)" fill="#626D8C"/>
<rect width="5.63636" height="5.63636" rx="2" transform="matrix(-1 0 0 1 1429.82 2207.27)" fill="#626D8C"/>
<rect width="5.63636" height="5.63636" rx="2" transform="matrix(-1 0 0 1 1429.82 2221.36)" fill="#626D8C"/>
<rect width="5.63636" height="5.63636" rx="2" transform="matrix(-1 0 0 1 1401.64 2165)" fill="#626D8C"/>
<rect width="5.63636" height="5.63636" rx="2" transform="matrix(-1 0 0 1 1401.64 2193.18)" fill="#626D8C"/>
<rect width="5.63636" height="5.63636" rx="2" transform="matrix(-1 0 0 1 1401.64 2179.09)" fill="#626D8C"/>
<rect width="5.63636" height="5.63636" rx="2" transform="matrix(-1 0 0 1 1401.64 2207.27)" fill="#626D8C"/>
<rect width="5.63636" height="5.63636" rx="2" transform="matrix(-1 0 0 1 1401.64 2221.36)" fill="#626D8C"/>
<rect x="1443.91" y="2297.45" width="5.63636" height="5.63636" rx="2" transform="rotate(180 1443.91 2297.45)" fill="#626D8C"/>
<rect x="1443.91" y="2269.27" width="5.63636" height="5.63636" rx="2" transform="rotate(180 1443.91 2269.27)" fill="#626D8C"/>
<rect x="1443.91" y="2283.36" width="5.63636" height="5.63636" rx="2" transform="rotate(180 1443.91 2283.36)" fill="#626D8C"/>
<rect x="1443.91" y="2255.18" width="5.63636" height="5.63636" rx="2" transform="rotate(180 1443.91 2255.18)" fill="#626D8C"/>
<rect x="1443.91" y="2241.09" width="5.63636" height="5.63636" rx="2" transform="rotate(180 1443.91 2241.09)" fill="#626D8C"/>
<rect width="5.63636" height="5.63636" rx="2" transform="matrix(-1 0 0 1 1415.73 2165)" fill="#626D8C"/>
<rect width="5.63636" height="5.63636" rx="2" transform="matrix(-1 0 0 1 1415.73 2193.18)" fill="#626D8C"/>
<rect width="5.63636" height="5.63636" rx="2" transform="matrix(-1 0 0 1 1415.73 2179.09)" fill="#626D8C"/>
<rect width="5.63636" height="5.63636" rx="2" transform="matrix(-1 0 0 1 1415.73 2207.27)" fill="#626D8C"/>
<rect width="5.63636" height="5.63636" rx="2" transform="matrix(-1 0 0 1 1415.73 2221.36)" fill="#626D8C"/>
<rect width="5.63636" height="5.63636" rx="2" transform="matrix(-1 0 0 1 1429.82 2235.45)" fill="#626D8C"/>
<rect width="5.63636" height="5.63636" rx="2" transform="matrix(-1 0 0 1 1429.82 2263.64)" fill="#626D8C"/>
<rect width="5.63636" height="5.63636" rx="2" transform="matrix(-1 0 0 1 1429.82 2249.55)" fill="#626D8C"/>
<rect width="5.63636" height="5.63636" rx="2" transform="matrix(-1 0 0 1 1429.82 2277.73)" fill="#626D8C"/>
<rect width="5.63636" height="5.63636" rx="2" transform="matrix(-1 0 0 1 1429.82 2291.82)" fill="#626D8C"/>
<rect width="5.63636" height="5.63636" rx="2" transform="matrix(1 0 0 -1 1410.09 927)" fill="#F9F047"/>
<rect width="5.63636" height="5.63636" rx="2" transform="matrix(1 0 0 -1 1410.09 898.818)" fill="#F9F047"/>
<rect width="5.63636" height="5.63636" rx="2" transform="matrix(1 0 0 -1 1410.09 912.909)" fill="#F9F047"/>
<rect width="5.63636" height="5.63636" rx="2" transform="matrix(1 0 0 -1 1410.09 884.727)" fill="#F9F047"/>
<rect width="5.63636" height="5.63636" rx="2" transform="matrix(1 0 0 -1 1410.09 870.636)" fill="#F9F047"/>
<rect x="1438.27" y="935.455" width="5.63636" height="5.63636" rx="2" fill="#F9F047"/>
<rect x="1438.27" y="963.636" width="5.63636" height="5.63636" rx="2" fill="#F9F047"/>
<rect x="1438.27" y="949.545" width="5.63636" height="5.63636" rx="2" fill="#F9F047"/>
<rect x="1438.27" y="977.727" width="5.63636" height="5.63636" rx="2" fill="#F9F047"/>
<rect x="1438.27" y="991.818" width="5.63636" height="5.63636" rx="2" fill="#F9F047"/>
<rect width="5.63636" height="5.63636" rx="2" transform="matrix(1 0 0 -1 1396 927)" fill="#F9F047"/>
<rect width="5.63636" height="5.63636" rx="2" transform="matrix(1 0 0 -1 1396 898.818)" fill="#F9F047"/>
<rect width="5.63636" height="5.63636" rx="2" transform="matrix(1 0 0 -1 1396 912.909)" fill="#F9F047"/>
<rect width="5.63636" height="5.63636" rx="2" transform="matrix(1 0 0 -1 1396 884.727)" fill="#F9F047"/>
<rect width="5.63636" height="5.63636" rx="2" transform="matrix(1 0 0 -1 1396 870.636)" fill="#F9F047"/>
<rect x="1424.18" y="865" width="5.63636" height="5.63636" rx="2" fill="#626D8C"/>
<rect x="1424.18" y="893.182" width="5.63636" height="5.63636" rx="2" fill="#626D8C"/>
<rect x="1424.18" y="879.091" width="5.63636" height="5.63636" rx="2" fill="#626D8C"/>
<rect x="1424.18" y="907.273" width="5.63636" height="5.63636" rx="2" fill="#626D8C"/>
<rect x="1424.18" y="921.364" width="5.63636" height="5.63636" rx="2" fill="#626D8C"/>
<rect width="5.63636" height="5.63636" rx="2" transform="matrix(1 0 0 -1 1410.09 997.455)" fill="#626D8C"/>
<rect width="5.63636" height="5.63636" rx="2" transform="matrix(1 0 0 -1 1410.09 969.273)" fill="#626D8C"/>
<rect width="5.63636" height="5.63636" rx="2" transform="matrix(1 0 0 -1 1410.09 983.364)" fill="#626D8C"/>
<rect width="5.63636" height="5.63636" rx="2" transform="matrix(1 0 0 -1 1410.09 955.182)" fill="#626D8C"/>
<rect width="5.63636" height="5.63636" rx="2" transform="matrix(1 0 0 -1 1410.09 941.091)" fill="#626D8C"/>
<rect x="1438.27" y="865" width="5.63636" height="5.63636" rx="2" fill="#626D8C"/>
<rect x="1438.27" y="893.182" width="5.63636" height="5.63636" rx="2" fill="#626D8C"/>
<rect x="1438.27" y="879.091" width="5.63636" height="5.63636" rx="2" fill="#626D8C"/>
<rect x="1438.27" y="907.273" width="5.63636" height="5.63636" rx="2" fill="#626D8C"/>
<rect x="1438.27" y="921.364" width="5.63636" height="5.63636" rx="2" fill="#626D8C"/>
<rect width="5.63636" height="5.63636" rx="2" transform="matrix(1 0 0 -1 1396 997.455)" fill="#626D8C"/>
<rect width="5.63636" height="5.63636" rx="2" transform="matrix(1 0 0 -1 1396 969.273)" fill="#626D8C"/>
<rect width="5.63636" height="5.63636" rx="2" transform="matrix(1 0 0 -1 1396 983.364)" fill="#626D8C"/>
<rect width="5.63636" height="5.63636" rx="2" transform="matrix(1 0 0 -1 1396 955.182)" fill="#626D8C"/>
<rect width="5.63636" height="5.63636" rx="2" transform="matrix(1 0 0 -1 1396 941.091)" fill="#626D8C"/>
<rect x="1424.18" y="935.455" width="5.63636" height="5.63636" rx="2" fill="#626D8C"/>
<rect x="1424.18" y="963.636" width="5.63636" height="5.63636" rx="2" fill="#626D8C"/>
<rect x="1424.18" y="949.545" width="5.63636" height="5.63636" rx="2" fill="#626D8C"/>
<rect x="1424.18" y="977.727" width="5.63636" height="5.63636" rx="2" fill="#626D8C"/>
<rect x="1424.18" y="991.818" width="5.63636" height="5.63636" rx="2" fill="#626D8C"/>
<circle cx="1381" cy="2846" r="3" fill="#24FF00"/>
<circle cx="1359" cy="2950" r="7" fill="#F9F047"/>
<circle cx="1417" cy="3031" r="3" fill="#0047FF"/>
<circle cx="1381" cy="1282" r="3" fill="#24FF00"/>
<circle cx="1359" cy="1386" r="7" fill="#F9F047"/>
<circle cx="1417" cy="1467" r="3" fill="#0047FF"/>
<circle cx="3" cy="3" r="3" transform="matrix(-1 0 0 1 62 2068)" fill="#24FF00"/>
<circle cx="7" cy="7" r="7" transform="matrix(-1 0 0 1 88 2168)" fill="#F9F047"/>
<circle cx="3" cy="3" r="3" transform="matrix(-1 0 0 1 26 2253)" fill="#0047FF"/>
<circle cx="320" cy="3688" r="3" fill="#24FF00"/>
<circle cx="433" cy="3562" r="4" fill="#4D4D4D"/>
<circle cx="115" cy="3632" r="7" fill="#0047FF"/>
<circle cx="585" cy="3538" r="7" fill="#0047FF"/>
<circle cx="104" cy="3558" r="3" fill="#F9F047"/>
<circle cx="19" cy="3572" r="7" fill="#626D8C"/>
<circle cx="396" cy="3629" r="7" fill="#626D8C"/>
<circle cx="389" cy="3761" r="7" fill="#F9F047"/>
<circle cx="517" cy="3768" r="7" fill="#626D8C"/>
<circle cx="460" cy="3718" r="3" fill="#0047FF"/>
<circle cx="317" cy="3518" r="3" fill="#0047FF"/>
<circle cx="547" cy="3694" r="7" fill="#F9F047"/>
<circle cx="84" cy="4184" r="3" fill="#24FF00"/>
<circle cx="77" cy="4274" r="7" fill="#F9F047"/>
<circle cx="205" cy="4281" r="7" fill="#626D8C"/>
<circle cx="148" cy="4231" r="3" fill="#0047FF"/>
<circle cx="158" cy="4194" r="7" fill="#F9F047"/>
<circle cx="354" cy="173" r="3" fill="#24FF00"/>
<circle cx="467" cy="47" r="4" fill="#4D4D4D"/>
<circle cx="149" cy="117" r="7" fill="#0047FF"/>
<circle cx="619" cy="23" r="7" fill="#0047FF"/>
<circle cx="138" cy="43" r="3" fill="#F9F047"/>
<circle cx="53" cy="57" r="7" fill="#626D8C"/>
<circle cx="430" cy="114" r="7" fill="#626D8C"/>
<circle cx="423" cy="246" r="7" fill="#F9F047"/>
<circle cx="551" cy="253" r="7" fill="#626D8C"/>
<circle cx="494" cy="203" r="3" fill="#0047FF"/>
<circle cx="351" cy="3" r="3" fill="#0047FF"/>
<circle cx="581" cy="179" r="7" fill="#F9F047"/>
<circle cx="118" cy="669" r="3" fill="#24FF00"/>
<circle cx="111" cy="759" r="7" fill="#F9F047"/>
<circle cx="239" cy="766" r="7" fill="#626D8C"/>
<circle cx="182" cy="716" r="3" fill="#0047FF"/>
<circle cx="192" cy="679" r="7" fill="#F9F047"/>
<circle cx="839" cy="1833" r="7" stroke="#05FF00" stroke-opacity="0.8" stroke-width="2"/>
<circle cx="407" cy="2203" r="7" stroke="#05FF00" stroke-opacity="0.8" stroke-width="2"/>
<circle cx="876.861" cy="2160.96" r="7" stroke="#FFB400" stroke-opacity="0.8" stroke-width="2"/>
<circle cx="359" cy="1811" r="7" stroke="#FFB400" stroke-opacity="0.8" stroke-width="2"/>
<rect x="1213.92" y="1844" width="14" height="14" transform="rotate(26.0517 1213.92 1844)" stroke="#FFB400" stroke-opacity="0.8" stroke-width="2"/>
<rect x="692.289" y="2107.34" width="14" height="14" transform="rotate(26.0517 692.289 2107.34)" stroke="#0047FF" stroke-opacity="0.8" stroke-width="2"/>
<path d="M1234.8 2211L1240 2202L1245.2 2211H1234.8Z" stroke="#FF2E00" stroke-opacity="0.8" stroke-width="2"/>
</svg>
